# xmcd
#
# Track frame offsets:
#	150
#	13132
#	31012
#	45740
#	57485
#	67942
#	88552
#	107212
#	129727
#	147715
#	170757
#	191172
#	223227
#
# Disc length: 3377 seconds
#
# Revision: 2
# Processed by: cddbd v1.5.2PL0 Copyright (c) Steve Scherf et al.
# Submitted via: audiograbber 1.83.01
#
DISCID=c90d2f0d
DTITLE=Acoustic Blues Duo - Acoustic Blues Duo (2)
DYEAR=1993
DGENRE=Blues
TTITLE0=Hot Chicken
TTITLE1=Slow Down
TTITLE2=Coolin' Board
TTITLE3=Pallet On Your Fllor
TTITLE4=Abd Shuffle
TTITLE5=I Can't Hardly Get Along
TTITLE6=M and O
TTITLE7=Tomorrow Night
TTITLE8=Bach Meets Dopyera
TTITLE9=Kind Hearted Woman
TTITLE10=Jack O'Diamonds
TTITLE11=Mean Conductor
TTITLE12=Rally Round The Flag
EXTD=
EXTT0=
EXTT1=
EXTT2=
EXTT3=
EXTT4=
EXTT5=
EXTT6=
EXTT7=
EXTT8=
EXTT9=
EXTT10=
EXTT11=
EXTT12=
PLAYORDER=
